PathFileType	4	(X/Y/Z)	D:\TRACE\spot_10-12-23\spot_body_baseline_4-platform.trc
DataRate	CameraRate	NumFrames	NumMarkers	Units	OrigDataRate	OrigDataStartFrame	OrigNumFrames
100.00	100.00	      62	5	mm	100.00	1751	      7000
Frame#	Time	Left_Front			Right_Front			Left_Aft			Right_Aft			Post			
		X1	Y1	Z1	X2	Y2	Z2	X3	Y3	Z3	X4	Y4	Z4	X5	Y5	Z5	

1751	17.500	-780.59570	6.29068	-641.48969	791.61115	11.04232	-634.89172	-697.82867	5.61759	496.38013	719.48120	10.11346	582.30988	1.76507	743.90906	-959.46771	
1752	17.510	-780.58459	6.30113	-641.50482	791.60431	11.05012	-634.91003	-697.83698	5.61254	496.39487	719.48260	10.13227	582.33167	1.74630	743.92889	-959.43384	
1753	17.520	-780.54120	6.24482	-641.53406	791.58899	11.05803	-634.89844	-697.82434	5.61246	496.37799	719.49280	10.11001	582.31769	1.69458	743.94397	-959.45557	
1754	17.530	-780.70099	6.39666	-641.46967	791.59210	11.10276	-634.87390	-697.81885	5.61107	496.38083	719.47992	10.09698	582.32318	1.70598	743.91840	-959.46216	
1755	17.540	-780.59979	6.29089	-641.54865	791.56885	11.07451	-634.94476	-697.84979	5.58075	496.39532	719.49200	10.11665	582.32782	2.00713	743.93622	-959.48688	
1756	17.550	-780.65143	6.38136	-641.47382	791.66040	11.06949	-634.90363	-697.77386	5.57985	496.39618	719.49689	10.11842	582.32013	1.82425	743.99988	-959.46869	
1757	17.560	-780.65747	6.38893	-641.46320	791.68018	11.08138	-634.84979	-697.76758	5.61623	496.38678	719.50848	10.13295	582.31177	1.77372	744.00812	-959.44708	
1758	17.570	-780.74628	6.43100	-641.45935	791.58777	11.08235	-634.87457	-697.85272	5.63130	496.36597	719.49048	10.10950	582.30225	1.80241	743.98444	-959.45868	
1759	17.580	-780.69336	6.44638	-641.51178	791.59424	11.10302	-634.84601	-697.82483	5.60986	496.38235	719.48956	10.10208	582.30688	1.79351	743.97821	-959.45905	
1760	17.590	-780.82202	6.51189	-641.44305	791.60199	11.05851	-634.91180	-697.85803	5.63797	496.37274	719.47845	10.11561	582.30542	1.78914	743.92999	-959.46564	
1761	17.600	-780.74127	6.43214	-641.48541	791.57526	11.05511	-634.92969	-697.85498	5.62474	496.38202	719.46948	10.10868	582.31671	1.77125	743.94214	-959.46912	
1762	17.610	-780.72034	6.43824	-641.50159	791.66351	11.08667	-634.88239	-697.81781	5.61599	496.39603	718.89532	9.69444	581.86719	1.78753	743.93933	-959.46265	
1763	17.620	-780.67035	6.40207	-641.50043	791.66351	11.07222	-634.89044	-697.82849	5.61821	496.37747	719.00372	9.77242	581.83405	1.81131	743.94012	-959.43909	
1764	17.630	-780.67914	6.42383	-641.48529	791.59991	11.05066	-634.88733	-697.82129	5.60705	496.40201	719.04749	9.75196	581.99591	1.86597	743.92761	-959.42401	
1765	17.640	-780.62103	6.32753	-641.49036	791.63947	11.05046	-634.86932	-697.81873	5.59814	496.39606	719.12604	9.80029	582.02380	1.75809	743.95801	-959.48633	
1766	17.650	-780.69690	6.40666	-641.47357	791.64899	11.09869	-634.86548	-697.85486	5.62802	496.38345	719.15979	9.84596	582.03345	1.79281	743.95551	-959.45667	
1767	17.660	-780.72083	6.41300	-641.49133	791.61676	11.05360	-634.90570	-697.81665	5.60863	496.37418	719.25690	9.94705	582.09436	1.79292	743.93256	-959.47253	
1768	17.670	-780.62439	6.33896	-641.46332	791.58868	11.02738	-634.92261	-697.80811	5.60957	496.38284	719.25555	9.94750	582.16425	1.78916	743.94751	-959.43408	
1769	17.680	-780.68927	6.36294	-641.46716	791.63153	11.03458	-634.86566	-697.85236	5.61194	496.39072	719.32135	10.00857	582.24152	1.84235	743.92310	-959.39667	
1770	17.690	-780.61713	6.34854	-641.46918	791.57721	11.10238	-634.88745	-697.83362	5.59239	496.37491	719.35553	10.01547	582.28809	1.80745	743.91937	-959.42041	
1771	17.700	-780.70947	6.40736	-641.51947	791.60553	11.08575	-634.90930	-697.80072	5.61495	496.40189	719.38696	10.00189	582.29895	1.80202	743.94629	-959.46509	
1772	17.710	-780.68140	6.38168	-641.47546	791.67773	11.04721	-634.84375	-697.84216	5.58912	496.34479	719.40973	10.04223	582.31433	1.75754	743.96124	-959.42078	
1773	17.720	-780.59485	6.37142	-641.53656	791.61938	11.11751	-634.87469	-697.80908	5.61227	496.36450	719.45929	10.04676	582.33203	1.75317	743.96210	-959.49744	
1774	17.730	-780.59766	6.32264	-641.47131	791.64648	11.13410	-634.85217	-697.86371	5.58882	496.40411	719.42596	10.07200	582.35455	1.75043	743.98041	-959.44220	
1775	17.740	-780.66492	6.39080	-641.51129	791.63763	11.08831	-634.86426	-697.85223	5.57887	496.38010	719.42523	10.04572	582.35797	1.79619	743.99518	-959.44415	
1776	17.750	-780.68048	6.37702	-641.44006	791.64294	11.09518	-634.86072	-697.83081	5.56394	496.40103	719.45874	9.99954	582.36810	1.74727	744.00757	-959.43738	
1777	17.760	-780.72455	6.41735	-641.46155	791.60272	11.11028	-634.91223	-697.86194	5.58788	496.41397	719.45544	10.02220	582.37927	1.76482	743.98724	-959.41901	
1778	17.770	-780.66492	6.39511	-641.49121	791.59149	11.14482	-634.88751	-697.84155	5.59185	496.38861	719.45062	10.03977	582.38605	1.80332	743.96265	-959.38647	
1779	17.780	-780.65826	6.35816	-641.55298	791.63910	11.08086	-634.90082	-697.85162	5.60552	496.35641	719.47186	10.07034	582.38397	1.83106	743.97028	-959.34473	
1780	17.790	-780.71021	6.41017	-641.47998	791.62030	11.01762	-634.90509	-697.83862	5.59473	496.37241	719.48193	10.08363	582.36841	1.79807	743.92584	-959.37433	
1781	17.800	-780.77032	6.45272	-641.44891	791.66516	11.05005	-634.84521	-697.80426	5.58861	496.40195	719.46082	10.07210	582.39008	1.88912	743.89587	-959.40735	
1782	17.810	-780.67780	6.36839	-641.51270	791.59320	11.10915	-634.85730	-697.85162	5.61790	496.40115	719.43604	10.08167	582.42090	1.79976	743.94995	-959.44769	
1783	17.820	-780.59766	6.36336	-641.49188	791.65332	11.11329	-634.84906	-697.83917	5.59651	496.40497	719.47577	10.04048	582.40289	1.81146	743.92114	-959.44312	
1784	17.830	-780.65430	6.33067	-641.47418	791.62701	11.08039	-634.87329	-697.89276	5.58289	496.40356	719.45001	10.05764	582.42273	1.78871	743.97491	-959.47784	
1785	17.840	-780.68781	6.39159	-641.46997	791.67993	11.14034	-634.88824	-697.89301	5.57895	496.37833	719.51068	10.01442	582.43060	1.76519	743.98608	-959.55206	
1786	17.850	-780.68658	6.39085	-641.45673	791.63892	11.13435	-634.88025	-697.87280	5.59099	496.36292	719.50916	10.06300	582.42981	1.77728	743.98059	-959.51910	
1787	17.860	-780.71466	6.40137	-641.43359	791.64764	11.09472	-634.87744	-697.87823	5.60658	496.39929	719.50958	10.05549	582.44470	1.81986	743.94568	-959.47083	
1788	17.870	-780.69739	6.38401	-641.45819	791.59155	11.04627	-634.90790	-698.11737	5.67228	496.37848	719.48444	10.05677	582.43475	1.81656	743.91760	-959.41992	
1789	17.880	-780.64990	6.30987	-641.48297	791.60107	11.04632	-634.87744	-697.84967	5.65565	496.36646	719.49664	10.11853	582.43323	1.83324	743.91656	-959.32849	
1790	17.890	-780.67871	6.37180	-641.51251	791.65784	11.03300	-634.87640	-697.84619	5.63992	496.37411	719.50836	10.10080	582.44415	1.83603	743.90540	-959.34857	
1791	17.900	-780.74213	6.43375	-641.46582	791.59564	11.05530	-634.90833	-697.87604	5.64194	496.34262	719.50806	10.09414	582.42017	1.83356	743.93823	-959.36505	
1792	17.910	-780.59436	6.28587	-641.47595	791.61987	11.08105	-634.89850	-697.85571	5.62324	496.32877	719.54712	10.09077	582.45624	1.78605	743.93353	-959.40778	
1793	17.920	-780.60242	6.31613	-641.51355	791.61774	11.13228	-634.91235	-697.90271	5.62148	496.34747	719.53387	10.07984	582.44043	1.78092	743.97076	-959.45813	
1794	17.930	-780.71844	6.42182	-641.46423	791.56970	11.09078	-634.89600	-697.87799	5.60769	496.36066	719.53418	10.07828	582.44763	1.80515	743.97369	-959.42792	
1795	17.940	-780.68018	6.44363	-641.48047	791.62054	11.11618	-634.89557	-697.85431	5.64297	496.39484	719.52039	10.06332	582.45789	1.73392	744.02338	-959.47266	
1796	17.950	-780.58179	6.36590	-641.53448	791.67126	11.09895	-634.86951	-697.85645	5.59797	496.38049	719.50366	10.06170	582.43585	1.73566	744.00452	-959.45978	
1797	17.960	-780.74957	6.44395	-641.47418	791.62781	11.10150	-634.88025	-697.68378	5.48874	496.41391	719.53760	10.09741	582.46484	1.78432	743.96405	-959.37146	
1798	17.970	-780.70239	6.39738	-641.45630	791.63831	11.08958	-634.86902	-697.68884	5.56320	496.38696	719.52185	10.10019	582.46790	1.80041	743.92438	-959.40790	
1799	17.980	-780.66327	6.36842	-641.50421	791.58215	11.07601	-634.91479	-697.66125	5.57748	496.38513	719.51422	10.08486	582.46002	1.79622	743.92242	-959.44946	
1800	17.990	-780.69354	6.35705	-641.47729	791.61102	11.09060	-634.91669	-697.74542	5.57056	496.38040	719.49976	10.08721	582.45013	1.80536	743.91925	-959.44287	
1801	18.000	-780.68365	6.35315	-641.44598	791.67047	11.08336	-634.83844	-697.77130	5.58290	496.38065	719.50238	10.11212	582.46204	1.78986	743.92383	-959.44586	
1802	18.010	-780.62219	6.34025	-641.50720	791.66351	11.09264	-634.85425	-697.73840	5.61683	496.36603	719.52875	10.11848	582.43933	1.79772	743.96246	-959.44916	
1803	18.020	-780.73346	6.42156	-641.45319	791.62415	11.10461	-634.87189	-697.76196	5.59839	496.39969	719.50049	10.08825	582.46594	1.77732	743.95563	-959.46851	
1804	18.030	-780.61462	6.38114	-641.53259	791.59863	11.14793	-634.86090	-697.77338	5.57817	496.40256	719.50458	10.06462	582.47113	1.77383	743.96698	-959.48511	
1805	18.040	-780.71539	6.38489	-641.50604	791.59546	11.12967	-634.86249	-697.76636	5.59741	496.36853	719.51178	10.05835	582.47913	1.77292	743.98450	-959.52301	
1806	18.050	-780.70758	6.38595	-641.51190	791.59210	11.07722	-634.88617	-697.74585	5.55538	496.36435	719.48444	10.04524	582.47186	1.78958	743.97931	-959.43756	
1807	18.060	-780.64679	6.38013	-641.46490	791.58008	11.05952	-634.92474	-697.70654	5.58631	496.37665	719.51410	10.07213	582.46631	1.80230	743.94110	-959.44012	
1808	18.070	-780.71191	6.38287	-641.47766	791.64160	11.05866	-634.84485	-697.67389	5.58811	496.37473	719.50464	10.11558	582.46100	1.85127	743.94592	-959.36084	
1809	18.080	-780.72205	6.46151	-641.49451	791.60278	11.01737	-634.91364	-697.63062	5.60711	496.38873	719.50092	10.11587	582.44995	1.82296	743.94073	-959.32880	
1810	18.090	-780.69305	6.43035	-641.52209	791.55945	11.10290	-634.88702	-697.86981	5.60358	496.41125	719.48267	10.12992	582.45245	1.81087	743.91022	-959.37299	
1811	18.100	-780.54205	6.27059	-641.54517	791.57758	11.09150	-634.92505	-697.86176	5.57179	496.36987	719.50323	10.08245	582.45056	1.76430	743.95844	-959.39886	
1812	18.110	-780.62024	6.25088	-641.49524	791.63452	10.98211	-634.90131	-697.83716	5.62818	496.39197	719.47772	10.07009	582.46478	1.75770	743.96082	-959.41852	
